<svg width="51" height="51" viewBox="0 0 51 51" fill="none" xmlns="http://www.w3.org/2000/svg">
<path fill-rule="evenodd" clip-rule="evenodd" d="M25.5 48.3158C38.1008 48.3158 48.3158 38.1008 48.3158 25.5C48.3158 12.8992 38.1008 2.68421 25.5 2.68421C12.8992 2.68421 2.68421 12.8992 2.68421 25.5C2.68421 38.1008 12.8992 48.3158 25.5 48.3158ZM25.5 51C39.5833 51 51 39.5833 51 25.5C51 11.4167 39.5833 0 25.5 0C11.4167 0 0 11.4167 0 25.5C0 39.5833 11.4167 51 25.5 51Z" fill="#FFC400"/>
<path d="M9.88865 17.7158L13.5177 17.1789H15.7724V32.2105H13.0882V19.4552L10.2108 19.8846L9.88865 17.7158Z" fill="#FFC400"/>
<path d="M28.2845 24.2223C29.1864 24.5229 29.9094 25.0168 30.4534 25.704C30.9974 26.3768 31.2694 27.1499 31.2694 28.0232C31.2694 28.8821 31.0117 29.648 30.4963 30.3208C29.981 30.9937 29.258 31.5162 28.3275 31.8884C27.4113 32.2606 26.3519 32.4467 25.1494 32.4467C23.9612 32.4467 22.9018 32.2606 21.9713 31.8884C21.0408 31.5162 20.3178 30.9937 19.8024 30.3208C19.2871 29.648 19.0294 28.8821 19.0294 28.0232C19.0294 27.1499 19.3014 26.3768 19.8454 25.704C20.3894 25.0168 21.1123 24.5229 22.0142 24.2223C21.2984 23.9217 20.7258 23.4779 20.2963 22.8909C19.8669 22.304 19.6521 21.6526 19.6521 20.9368C19.6521 20.1638 19.8812 19.4766 20.3393 18.8754C20.8117 18.2598 21.4631 17.7874 22.2934 17.4581C23.1237 17.1145 24.0757 16.9427 25.1494 16.9427C26.2231 16.9427 27.1751 17.1145 28.0054 17.4581C28.8357 17.7874 29.4799 18.2598 29.938 18.8754C30.4104 19.4766 30.6467 20.1638 30.6467 20.9368C30.6467 21.6526 30.4319 22.304 30.0024 22.8909C29.573 23.4779 29.0003 23.9217 28.2845 24.2223ZM25.1494 19.3478C24.3334 19.3478 23.682 19.5267 23.1953 19.8846C22.7229 20.2282 22.4867 20.7149 22.4867 21.3448C22.4867 21.9747 22.7229 22.4686 23.1953 22.8265C23.682 23.1701 24.3334 23.3419 25.1494 23.3419C25.9654 23.3419 26.6096 23.1701 27.082 22.8265C27.5688 22.4686 27.8121 21.9747 27.8121 21.3448C27.8121 20.7149 27.5688 20.2282 27.082 19.8846C26.6096 19.5267 25.9654 19.3478 25.1494 19.3478ZM25.1494 30.0417C26.1372 30.0417 26.9317 29.8413 27.533 29.4404C28.1342 29.0396 28.4349 28.4813 28.4349 27.7655C28.4349 27.0497 28.1342 26.4914 27.533 26.0905C26.9317 25.6754 26.1372 25.4678 25.1494 25.4678C24.1616 25.4678 23.3671 25.6754 22.7658 26.0905C22.1645 26.4914 21.8639 27.0497 21.8639 27.7655C21.8639 28.4813 22.1645 29.0396 22.7658 29.4404C23.3671 29.8413 24.1616 30.0417 25.1494 30.0417Z" fill="#FFC400"/>
<path d="M39.138 24.1364H43.0033V26.2194H39.138V29.7411H37.055V26.2194H33.2327V24.1364H37.055V20.7221H39.138V24.1364Z" fill="#FFC400"/>
</svg>
