<svg width="26" height="26" viewBox="0 0 26 26" fill="none" xmlns="http://www.w3.org/2000/svg">
<path d="M18.7778 0C19.1316 4.66708e-05 19.473 0.129937 19.7374 0.365033C20.0018 0.60013 20.1707 0.924082 20.2121 1.27544L20.2222 1.44444V2.88889H23.1111C23.8399 2.88866 24.5419 3.16392 25.0763 3.6595C25.6108 4.15507 25.9381 4.83433 25.9928 5.56111L26 5.77778V23.1111C26.0002 23.8399 25.725 24.5419 25.2294 25.0763C24.7338 25.6108 24.0546 25.9381 23.3278 25.9928L23.1111 26H2.88889C2.16006 26.0002 1.45807 25.725 0.923653 25.2294C0.389235 24.7338 0.0618849 24.0546 0.00722253 23.3278L1.44832e-07 23.1111V5.77778C-0.000230503 5.04894 0.275032 4.34696 0.770607 3.81254C1.26618 3.27812 1.94544 2.95077 2.67222 2.89611L2.88889 2.88889H5.77778V1.44444C5.77819 1.07629 5.91916 0.722176 6.17189 0.454468C6.42462 0.18676 6.77004 0.0256606 7.13757 0.00408472C7.5051 -0.0174911 7.86699 0.102086 8.14931 0.338383C8.43163 0.57468 8.61307 0.909862 8.65656 1.27544L8.66667 1.44444V2.88889H17.3333V1.44444C17.3333 1.06135 17.4855 0.693954 17.7564 0.423068C18.0273 0.152182 18.3947 0 18.7778 0ZM23.1111 13H2.88889V23.1111H23.1111V13ZM23.1111 5.77778H2.88889V10.1111H23.1111V5.77778Z" fill="#FFC400"/>
</svg>
