<svg width="18" height="21" viewBox="0 0 18 21" fill="none" xmlns="http://www.w3.org/2000/svg">
<path d="M6.87149 20.5C5.05143 20.4369 3.21553 19.631 1.78243 17.9701C0.888251 16.9344 0.342794 15.7207 0.115287 14.364C0.0341683 13.8809 -0.0171139 13.3951 0.00526377 12.9064C0.06587 11.5459 0.433237 10.2776 1.15865 9.12237C1.48126 8.60829 1.85795 8.14128 2.28592 7.71099C3.80015 6.18757 5.30598 4.65474 6.81648 3.12661C7.23233 2.70574 7.64352 2.28016 8.07429 1.8753C8.81835 1.17479 9.69947 0.725674 10.7037 0.573143C12.8184 0.252077 14.5228 0.993072 15.8114 2.69633C16.3242 3.37424 16.6123 4.16514 16.7317 5.01064C16.9405 6.48322 16.5629 7.80609 15.6883 8.98867C15.5037 9.23818 15.2958 9.47263 15.0776 9.69295C13.278 11.5205 11.4738 13.3443 9.66963 15.1671C9.01695 15.8271 8.22068 16.1698 7.30133 16.1538C6.17871 16.1341 4.91064 15.4778 4.44724 14.0589C4.06309 12.8829 4.29153 11.8077 5.12976 10.9075C5.9568 10.0187 6.83046 9.17321 7.68175 8.30793C8.35867 7.61967 9.03187 6.92763 9.70879 6.23936C9.87756 6.06706 10.0501 5.89852 10.23 5.73658C10.6281 5.37785 11.1671 5.38632 11.554 5.7507C11.9205 6.0953 11.9764 6.66776 11.6426 7.0651C11.3274 7.43983 10.9787 7.78632 10.6347 8.13563C9.27709 9.51405 7.91485 10.8878 6.55727 12.2671C6.24584 12.5835 6.14048 12.9686 6.27288 13.3979C6.40435 13.8254 6.70086 14.0937 7.13349 14.1813C7.5251 14.2604 7.86916 14.1389 8.15261 13.8555C8.46963 13.5401 8.78571 13.2219 9.09993 12.9036C10.6701 11.3143 12.2393 9.72402 13.8086 8.13375C14.1806 7.75619 14.4995 7.34097 14.6552 6.82124C14.8734 6.09342 14.8762 5.36749 14.6263 4.64627C14.2505 3.56443 13.4738 2.91194 12.4025 2.62759C11.2072 2.31124 10.134 2.60876 9.25937 3.48158C7.35447 5.38067 5.47102 7.30048 3.58383 9.21747C3.07847 9.73155 2.65049 10.305 2.39968 10.9942C2.07707 11.882 1.9139 12.7935 2.01926 13.7416C2.13208 14.7594 2.5097 15.6671 3.12229 16.4843C3.92602 17.5567 4.9899 18.1819 6.29246 18.4117C7.22114 18.5745 8.13769 18.5341 9.02814 18.2083C9.86451 17.9023 10.6076 17.439 11.2389 16.7988C12.7643 15.2528 14.2925 13.7096 15.8207 12.1654C15.9606 12.0242 16.0976 11.8792 16.2524 11.7568C16.6552 11.4357 17.1895 11.4743 17.5485 11.8397C17.9028 12.2003 17.9391 12.7379 17.6165 13.139C17.4291 13.3716 17.2184 13.5862 17.0077 13.8C15.5233 15.3046 14.0361 16.8063 12.5508 18.309C11.6985 19.1715 10.6673 19.7289 9.53723 20.1234C8.78571 20.3861 8.01182 20.4868 6.87242 20.4991L6.87149 20.5Z" fill="#FFC400"/>
</svg>
