<svg width="161" height="56" viewBox="0 0 161 56" fill="none" xmlns="http://www.w3.org/2000/svg">
<path d="M18.7518 24.1956L18.4427 24.0149L12.1892 20.4065L5.93957 16.798L0.617188 13.7234L12.1932 7.04031L18.4427 3.43185L24.3833 0L30.3238 3.43185L36.5734 7.04031L48.1493 13.7234L42.827 16.798L36.5734 20.4065L30.0147 24.1915V24.1956L24.3833 27.4468L18.7518 24.1956Z" fill="#676767"/>
<path d="M31.252 32.123L43.7511 24.9061L48.7684 22.0081V35.021L31.252 45.1319V32.123Z" fill="#676767"/>
<path d="M6.25 33.0501L17.5169 39.5566V38.5852L6.25 32.0828V33.0501Z" fill="#989898"/>
<path d="M6.25 45.8423L17.5169 52.3528V51.0242L6.25 44.5177V45.8423Z" fill="#989898"/>
<path d="M6.25 36.1609L17.5169 42.6674V41.696L6.25 35.1896V36.1609Z" fill="#989898"/>
<path d="M6.25 25.8613V26.8327L17.5169 33.3392V32.3678L6.25 25.8613Z" fill="#989898"/>
<path d="M6.25 29.9434L17.5169 36.4459V35.4745L6.25 28.972V29.9434Z" fill="#989898"/>
<path d="M6.25 39.2716L17.5169 45.7741V44.8028L6.25 38.3003V39.2716Z" fill="#989898"/>
<path d="M6.25 42.3783L17.5169 48.8848V47.9135L6.25 41.407V42.3783Z" fill="#989898"/>
<path d="M25.002 28.5145L31.2515 24.9061L37.1921 21.4782L43.4456 17.8658L48.768 14.7911V20.5831L42.5184 24.1916V24.1956L30.0153 31.4125V47.2713L48.768 36.4459V42.2379L42.8275 45.6658L36.5739 49.2782L25.002 55.9613V28.5145Z" fill="#989898"/>
<path d="M18.7528 53.0633V31.6534L5.01733 23.722V45.1319L0 42.2379V14.7911L5.32639 17.8658L11.576 21.4782L17.5325 24.9141L17.8256 25.0867L23.7661 28.5145V55.9613L18.7528 53.0633Z" fill="#989898"/>
<path d="M72.6185 10.8535V26.4875H68.7772V14.0044H62.2547V26.4875H58.4375V10.8535H72.6185Z" fill="#989898"/>
<path d="M90.4642 10.8535V26.4875H86.6229V16.5933L79.117 26.4875H75.7012V10.8535H79.5665V20.6152L86.9159 10.8535H90.4682H90.4642Z" fill="#989898"/>
<path d="M106.857 19.7643C107.451 20.4185 107.752 21.2454 107.752 22.2449C107.752 23.5694 107.222 24.609 106.166 25.3596C105.111 26.1102 103.658 26.4875 101.811 26.4875H93.5469V10.8535H101.567C103.293 10.8535 104.645 11.1987 105.621 11.8931C106.596 12.5835 107.082 13.5589 107.082 14.8072C107.082 15.6701 106.845 16.4087 106.367 17.0188C105.889 17.6289 105.211 18.0825 104.336 18.3795C105.424 18.6484 106.263 19.11 106.861 19.7643H106.857ZM97.3881 13.9362V17.2195H100.985C101.727 17.2195 102.297 17.0951 102.694 16.8502C103.088 16.6054 103.285 16.2 103.285 15.634C103.285 15.0681 103.072 14.6265 102.646 14.3496C102.221 14.0726 101.615 13.9362 100.824 13.9362H97.3841H97.3881ZM101.274 23.4049C102.124 23.4049 102.779 23.2644 103.24 22.9794C103.702 22.6984 103.931 22.2569 103.931 21.6628C103.931 21.0688 103.726 20.6313 103.317 20.3583C102.907 20.0814 102.361 19.9449 101.675 19.9449H97.3881V23.4049H101.274Z" fill="#989898"/>
<path d="M120.504 17.063V10.8535H124.369V26.4875H120.504V20.3463H113.736V26.4875H109.871V10.8535H113.736V17.063H120.504Z" fill="#989898"/>
<path d="M130.948 25.7168C129.659 25.0265 128.656 24.0631 127.933 22.8349C127.211 21.6066 126.85 20.2178 126.85 18.6685C126.85 17.1191 127.215 15.7304 127.945 14.5021C128.676 13.2739 129.679 12.3146 130.96 11.6202C132.24 10.9298 133.693 10.5806 135.315 10.5806C136.936 10.5806 138.369 10.9258 139.658 11.6202C140.946 12.3146 141.95 13.2739 142.672 14.5021C143.395 15.7304 143.756 17.1191 143.756 18.6685C143.756 20.2178 143.391 21.6066 142.66 22.8349C141.93 24.0631 140.926 25.0224 139.646 25.7168C138.365 26.4112 136.912 26.7564 135.291 26.7564C133.669 26.7564 132.236 26.4112 130.948 25.7168ZM137.639 22.8228C138.325 22.4215 138.859 21.8635 139.248 21.1491C139.634 20.4346 139.83 19.6077 139.83 18.6685C139.83 17.7293 139.638 16.9024 139.248 16.1799C138.859 15.4574 138.325 14.8955 137.639 14.4941C136.953 14.0927 136.178 13.892 135.315 13.892C134.452 13.892 133.673 14.0927 132.983 14.4941C132.292 14.8955 131.751 15.4574 131.365 16.1799C130.98 16.9024 130.783 17.7333 130.783 18.6685C130.783 19.6037 130.976 20.4346 131.365 21.1491C131.751 21.8635 132.288 22.4215 132.975 22.8228C133.661 23.2242 134.44 23.4249 135.319 23.4249C136.198 23.4249 136.957 23.2242 137.643 22.8228H137.639Z" fill="#989898"/>
<path d="M160.995 10.8535V26.4875H157.154V16.5934L149.648 26.4875H146.232V10.8535H150.098V20.6152L157.447 10.8535H160.999H160.995ZM157.355 6.76742C157.355 7.76687 157.018 8.5576 156.339 9.14764C155.661 9.73768 154.758 10.0307 153.626 10.0307C152.494 10.0307 151.567 9.73768 150.889 9.14764C150.21 8.5576 149.873 7.76687 149.873 6.76742L152.466 6.72327C152.466 7.20092 152.558 7.54611 152.747 7.76286C152.932 7.97961 153.229 8.08798 153.63 8.08798C154.031 8.08798 154.32 7.97961 154.501 7.76286C154.682 7.54611 154.77 7.20092 154.77 6.72327L157.359 6.76742H157.355Z" fill="#989898"/>
<path d="M61.9984 45.7742C60.71 45.0758 59.6945 44.1084 58.9479 42.8721C58.2013 41.6359 57.832 40.2591 57.832 38.7419C57.832 37.2246 58.1933 35.8479 58.9158 34.6116C59.6383 33.3753 60.6337 32.408 61.9101 31.7096C63.1825 31.0112 64.6034 30.658 66.1648 30.658C68.8019 30.658 70.9533 31.545 72.6191 33.3151L70.1385 35.5268C69.0949 34.3949 67.8386 33.8289 66.3655 33.8289C65.5025 33.8289 64.7158 34.0376 64.0094 34.4551C63.3029 34.8725 62.741 35.4545 62.3235 36.1971C61.9061 36.9397 61.6974 37.7826 61.6974 38.7218C61.6974 39.6611 61.9021 40.4999 62.3115 41.2465C62.7209 41.9931 63.2788 42.5711 63.9853 42.9885C64.6917 43.406 65.4704 43.6147 66.3173 43.6147C67.0479 43.6147 67.7423 43.4622 68.4045 43.1571C69.0668 42.8521 69.6649 42.4226 70.2028 41.8727L72.6592 44.1044C71.8846 45.0115 70.9533 45.6939 69.8656 46.1475C68.7778 46.601 67.5857 46.8298 66.2933 46.8298C64.7158 46.8298 63.2829 46.4806 61.9944 45.7782L61.9984 45.7742Z" fill="#989898"/>
<path d="M88.8108 46.5568H84.5882L80.4339 40.4598H78.2905V46.5568H74.4492V30.9229H78.2905V36.9998H80.5463L84.2109 30.9229H88.5218L83.3158 38.493L88.8108 46.5568Z" fill="#989898"/>
<path d="M104.758 46.5568H100.892V34.0737H95.5539L95.4214 39.2757C95.3773 41.2987 95.0642 42.848 94.4822 43.9197C93.9002 44.9914 93.1657 45.7019 92.2706 46.0511C91.3755 46.4003 90.3198 46.5689 89.0996 46.5528V43.5143C89.8301 43.4862 90.4162 43.1812 90.8657 42.5992C91.3113 42.0172 91.5561 40.9455 91.6043 39.3841L91.805 30.9188H104.758V46.5528V46.5568Z" fill="#989898"/>
<path d="M123.924 46.5568H119.882L118.811 43.9197H111.441L110.345 46.5568H106.348L113.203 30.9229H117.045L123.924 46.5568ZM115.126 34.9648L112.645 40.9936H117.603L115.122 34.9648H115.126Z" fill="#989898"/>
<path d="M139.847 43.41H142.44V49.2381H138.598V46.5568H128.234V49.2381H124.369V43.41H125.91C126.252 43.3939 126.533 43.2735 126.749 43.0407C126.966 42.8079 127.147 42.3744 127.295 41.7322C127.444 41.094 127.54 40.1627 127.584 38.9385L127.809 30.9188H139.847V43.4059V43.41ZM136.005 43.41V34.0737H131.538L131.381 39.3239C131.337 40.9896 131.137 42.3543 130.779 43.41H136.005Z" fill="#989898"/>
</svg>
