<svg width="161" height="56" viewBox="0 0 161 56" fill="none" xmlns="http://www.w3.org/2000/svg">
<path d="M18.7527 24.1956L18.4437 24.0149L12.1901 20.4065L5.94048 16.798L0.618103 13.7234L12.1941 7.04031L18.4437 3.43185L24.3842 0L30.3247 3.43185L36.5743 7.04031L48.1503 13.7234L42.8279 16.798L36.5743 20.4065L30.0156 24.1915V24.1956L24.3842 27.4468L18.7527 24.1956Z" fill="#FFC400"/>
<path d="M31.2519 32.123L43.7511 24.9061L48.7684 22.0081V35.021L31.2519 45.1319V32.123Z" fill="#FFC400"/>
<path d="M6.24951 33.0501L17.5164 39.5566V38.5852L6.24951 32.0828V33.0501Z" fill="white"/>
<path d="M6.24951 45.8423L17.5164 52.3528V51.0242L6.24951 44.5177V45.8423Z" fill="white"/>
<path d="M6.24951 36.1609L17.5164 42.6674V41.696L6.24951 35.1896V36.1609Z" fill="white"/>
<path d="M6.24957 25.8613V26.8327L17.5165 33.3392V32.3678L6.24957 25.8613Z" fill="white"/>
<path d="M6.24951 29.9434L17.5164 36.4459V35.4745L6.24951 28.972V29.9434Z" fill="white"/>
<path d="M6.24951 39.2716L17.5164 45.7741V44.8028L6.24951 38.3003V39.2716Z" fill="white"/>
<path d="M6.24951 42.3783L17.5164 48.8848V47.9135L6.24951 41.407V42.3783Z" fill="white"/>
<path d="M25.0024 28.5145L31.252 24.9061L37.1925 21.4782L43.4461 17.8658L48.7685 14.7911V20.5831L42.5189 24.1916V24.1956L30.0158 31.4125V47.2713L48.7685 36.4459V42.2379L42.828 45.6658L36.5744 49.2782L25.0024 55.9613V28.5145Z" fill="white"/>
<path d="M18.7528 53.0633V31.6534L5.01733 23.722V45.1319L0 42.2379V14.7911L5.32639 17.8658L11.576 21.4782L17.5325 24.9141L17.8256 25.0867L23.7661 28.5145V55.9613L18.7528 53.0633Z" fill="white"/>
<path d="M72.6188 10.8535V26.4875H68.7775V14.0044H62.255V26.4875H58.4378V10.8535H72.6188Z" fill="white"/>
<path d="M90.4645 10.8535V26.4875H86.6232V16.5933L79.1173 26.4875H75.7015V10.8535H79.5668V20.6152L86.9162 10.8535H90.4685H90.4645Z" fill="white"/>
<path d="M106.857 19.7643C107.451 20.4185 107.752 21.2454 107.752 22.2449C107.752 23.5694 107.222 24.609 106.167 25.3596C105.111 26.1102 103.658 26.4875 101.812 26.4875H93.547V10.8535H101.567C103.293 10.8535 104.645 11.1987 105.621 11.8931C106.596 12.5835 107.082 13.5589 107.082 14.8072C107.082 15.6701 106.845 16.4087 106.367 17.0188C105.89 17.6289 105.211 18.0825 104.336 18.3795C105.424 18.6484 106.263 19.11 106.861 19.7643H106.857ZM97.3883 13.9362V17.2195H100.985C101.727 17.2195 102.297 17.0951 102.695 16.8502C103.088 16.6054 103.285 16.2 103.285 15.634C103.285 15.0681 103.072 14.6265 102.646 14.3496C102.221 14.0726 101.615 13.9362 100.824 13.9362H97.3842H97.3883ZM101.274 23.4049C102.125 23.4049 102.779 23.2644 103.24 22.9794C103.702 22.6984 103.931 22.2569 103.931 21.6628C103.931 21.0688 103.726 20.6313 103.317 20.3583C102.907 20.0814 102.361 19.9449 101.675 19.9449H97.3883V23.4049H101.274Z" fill="white"/>
<path d="M120.504 17.063V10.8535H124.369V26.4875H120.504V20.3463H113.737V26.4875H109.871V10.8535H113.737V17.063H120.504Z" fill="white"/>
<path d="M130.948 25.7168C129.66 25.0265 128.656 24.0631 127.934 22.8349C127.211 21.6066 126.85 20.2178 126.85 18.6685C126.85 17.1191 127.215 15.7304 127.946 14.5021C128.676 13.2739 129.68 12.3146 130.96 11.6202C132.241 10.9298 133.694 10.5806 135.315 10.5806C136.937 10.5806 138.37 10.9258 139.658 11.6202C140.947 12.3146 141.95 13.2739 142.673 14.5021C143.395 15.7304 143.756 17.1191 143.756 18.6685C143.756 20.2178 143.391 21.6066 142.661 22.8349C141.93 24.0631 140.927 25.0224 139.646 25.7168C138.366 26.4112 136.913 26.7564 135.291 26.7564C133.67 26.7564 132.237 26.4112 130.948 25.7168ZM137.639 22.8228C138.326 22.4215 138.86 21.8635 139.249 21.1491C139.634 20.4346 139.831 19.6077 139.831 18.6685C139.831 17.7293 139.638 16.9024 139.249 16.1799C138.86 15.4574 138.326 14.8955 137.639 14.4941C136.953 14.0927 136.178 13.892 135.315 13.892C134.452 13.892 133.674 14.0927 132.983 14.4941C132.293 14.8955 131.751 15.4574 131.366 16.1799C130.98 16.9024 130.784 17.7333 130.784 18.6685C130.784 19.6037 130.976 20.4346 131.366 21.1491C131.751 21.8635 132.289 22.4215 132.975 22.8228C133.662 23.2242 134.44 23.4249 135.319 23.4249C136.198 23.4249 136.957 23.2242 137.643 22.8228H137.639Z" fill="white"/>
<path d="M160.996 10.8535V26.4875H157.155V16.5934L149.649 26.4875H146.233V10.8535H150.098V20.6152L157.448 10.8535H161H160.996ZM157.355 6.76742C157.355 7.76687 157.018 8.5576 156.34 9.14764C155.662 9.73768 154.758 10.0307 153.627 10.0307C152.495 10.0307 151.567 9.73768 150.889 9.14764C150.211 8.5576 149.874 7.76687 149.874 6.76742L152.467 6.72327C152.467 7.20092 152.559 7.54611 152.748 7.76286C152.932 7.97961 153.229 8.08798 153.631 8.08798C154.032 8.08798 154.321 7.97961 154.502 7.76286C154.682 7.54611 154.771 7.20092 154.771 6.72327L157.359 6.76742H157.355Z" fill="white"/>
<path d="M61.9981 45.7742C60.7096 45.0758 59.6941 44.1084 58.9475 42.8721C58.2009 41.6359 57.8317 40.2591 57.8317 38.7419C57.8317 37.2246 58.1929 35.8479 58.9154 34.6116C59.6379 33.3753 60.6333 32.408 61.9097 31.7096C63.1821 31.0112 64.603 30.658 66.1644 30.658C68.8015 30.658 70.953 31.545 72.6187 33.3151L70.1382 35.5268C69.0946 34.3949 67.8382 33.8289 66.3651 33.8289C65.5022 33.8289 64.7154 34.0376 64.009 34.4551C63.3026 34.8725 62.7406 35.4545 62.3232 36.1971C61.9057 36.9397 61.697 37.7826 61.697 38.7218C61.697 39.6611 61.9017 40.4999 62.3111 41.2465C62.7206 41.9931 63.2785 42.5711 63.9849 42.9885C64.6914 43.406 65.47 43.6147 66.317 43.6147C67.0475 43.6147 67.7419 43.4622 68.4042 43.1571C69.0665 42.8521 69.6645 42.4226 70.2024 41.8727L72.6589 44.1044C71.8842 45.0115 70.953 45.6939 69.8652 46.1475C68.7775 46.601 67.5854 46.8298 66.2929 46.8298C64.7154 46.8298 63.2825 46.4806 61.994 45.7782L61.9981 45.7742Z" fill="white"/>
<path d="M88.8107 46.5568H84.5881L80.4338 40.4598H78.2904V46.5568H74.4491V30.9229H78.2904V36.9998H80.5462L84.2108 30.9229H88.5217L83.3157 38.493L88.8107 46.5568Z" fill="white"/>
<path d="M104.758 46.5568H100.892V34.0737H95.554L95.4216 39.2757C95.3774 41.2987 95.0643 42.848 94.4823 43.9197C93.9003 44.9914 93.1658 45.7019 92.2707 46.0511C91.3756 46.4003 90.3199 46.5689 89.0997 46.5528V43.5143C89.8303 43.4862 90.4163 43.1812 90.8658 42.5992C91.3114 42.0172 91.5562 40.9455 91.6044 39.3841L91.8051 30.9188H104.758V46.5528V46.5568Z" fill="white"/>
<path d="M123.924 46.5568H119.882L118.81 43.9197H111.441L110.345 46.5568H106.347L113.203 30.9229H117.044L123.924 46.5568ZM115.126 34.9648L112.645 40.9936H117.602L115.122 34.9648H115.126Z" fill="white"/>
<path d="M139.847 43.41H142.44V49.2381H138.599V46.5568H128.235V49.2381H124.37V43.41H125.911C126.252 43.3939 126.533 43.2735 126.75 43.0407C126.966 42.8079 127.147 42.3744 127.296 41.7322C127.444 41.094 127.54 40.1627 127.585 38.9385L127.809 30.9188H139.847V43.4059V43.41ZM136.006 43.41V34.0737H131.538L131.382 39.3239C131.338 40.9896 131.137 42.3543 130.78 43.41H136.006Z" fill="white"/>
</svg>
