<svg width="296" height="197" viewBox="0 0 296 197" fill="none" xmlns="http://www.w3.org/2000/svg">
<path d="M140.161 53.7222C132.507 53.413 125.094 53.0751 117.677 52.8306C111.871 52.64 106.062 52.5753 100.252 52.4315C99.6659 52.4172 99.0799 52.2518 98.4939 52.1583C98.5155 52.0109 98.537 51.8635 98.5586 51.7125H142.422C144.335 57.3892 144.522 63.3714 145.935 68.8719H186.372C185.804 64.5182 185.265 60.3983 184.737 56.3322C174.811 55.8756 165.194 55.4298 155.58 54.9876C155.57 54.8151 155.562 54.6389 155.552 54.4664H186.653C188.321 59.0393 188.598 64.0796 189.651 68.9078H224.57C224.268 65.5285 223.977 62.2785 223.664 58.7984C215.086 58.4893 206.57 58.1837 198.056 57.8781C198.056 57.6768 198.056 57.479 198.056 57.2777C206.347 56.7708 214.655 56.7277 223.071 56.5228C222.776 55.89 222.424 55.4083 221.964 55.0847C221.04 54.434 219.94 53.9954 219.113 53.2512C215.644 50.1307 211.7 47.8262 207.432 45.9999C205.365 45.1155 203.622 43.771 202.752 41.8584C203.032 40.8338 203.259 40.0141 203.485 39.198C203.323 39.2088 203.158 39.216 202.996 39.2268C202.734 38.3028 202.349 37.3969 202.234 36.4549C201.828 33.1367 201.691 29.7717 201.123 26.4857C200.368 22.1105 197.959 18.7563 193.57 17.534C189.59 16.4267 185.423 16.4734 181.203 16.646C181.062 17.9366 180.937 19.0799 180.825 20.1045C183.259 20.4819 185.42 20.6473 187.49 21.1758C191.014 22.0746 193.336 24.9578 193.347 28.632C193.358 32.5579 194.246 36.6347 192.045 40.2837C192.355 40.9488 192.646 41.7433 192.376 42.2358C191.848 43.2065 191.183 44.321 190.269 44.8243C186.62 46.834 182.856 48.6279 179.06 50.5405C175.627 46.9131 171.417 44.8171 166.998 43.0555C166.172 42.7248 165.391 42.2646 164.608 41.826C162.868 40.8553 161.703 39.3921 160.898 37.4292C161.354 36.8576 161.818 36.2752 162.469 35.4591C161.839 34.8803 161.221 34.3159 160.488 33.64C160.376 31.7562 160.34 29.7177 160.11 27.7045C159.747 24.5084 159.56 21.2441 158.737 18.1595C157.716 14.3379 155.178 11.3037 151.331 10.2108C146.603 8.86979 141.653 8.83384 136.559 9.04954C136.307 10.3869 136.07 11.6452 135.818 12.9682C137.742 13.1839 139.46 13.3421 141.168 13.5686C146.578 14.2912 149.861 16.6783 150.436 22.7576C150.795 26.5756 150.213 30.4835 150.058 34.2224C148.07 34.7976 148.034 35.2398 149.544 36.9618C149.541 39.0398 148.34 40.5965 146.639 41.5204C142.559 43.7386 138.356 45.7195 134.11 47.8442C129.98 43.7098 124.867 41.4018 119.727 39.065C117.828 38.2057 116.185 36.6742 114.629 35.229C113.884 34.5388 113.611 33.338 113.137 32.3961C113.859 31.8712 114.284 31.562 114.701 31.2636C114.399 30.577 114.33 29.973 114.003 29.7501C112.695 28.8693 112.763 27.5751 112.666 26.2449C112.367 22.1896 112.22 18.102 111.584 14.0971C110.347 6.33165 106.525 2.54962 100.266 1.07563C95.3482 -0.081993 90.3187 -0.0999684 85.2496 0.0905715C84.9692 1.61849 84.7103 3.05652 84.4227 4.62398C86.4827 4.86126 88.3737 5.09494 90.2719 5.29627C97.0774 6.02967 101.201 10.1964 101.366 16.8976C101.453 20.4172 101.079 23.9512 100.867 27.4744C100.841 27.913 100.608 28.3947 100.335 28.7542C98.8246 30.7351 98.8103 30.7244 100.291 32.6657C99.7845 34.6862 98.6952 36.3902 96.8653 37.458C95.0642 38.5077 93.1444 39.3598 91.2642 40.2657C87.7554 41.9518 84.1243 43.4977 81.3813 46.3486C79.2925 48.5165 77.0276 50.2349 73.8064 50.8317C72.9831 56.9146 72.167 62.9256 71.3438 68.9869H142.196C141.631 63.7417 141.279 58.651 140.175 53.7078L140.161 53.7222Z" fill="#E44414"/>
<path d="M147.243 170.847C142.095 170.951 137.422 174.237 136.455 178.242C136.836 178.206 137.188 178.199 137.526 178.13C139.104 177.825 140.679 177.501 142.253 177.188C143.767 176.886 145.061 177.106 146.007 178.522C146.618 179.439 147.391 180.248 148.103 181.121C148.753 180.305 149.361 179.64 149.857 178.9C150.885 177.368 152.208 176.926 154.024 177.311C155.987 177.724 158.004 177.879 160.193 178.174C157.486 172.77 153.822 170.714 147.243 170.847Z" fill="#E44414"/>
<path d="M86.6985 182.66C82.4167 181.546 78.1386 180.431 73.8568 179.328C73.3715 179.202 72.8682 179.137 72.3756 179.044C72.3037 179.209 72.2354 179.374 72.1635 179.54C72.6561 179.827 73.1126 180.255 73.6447 180.381C78.872 181.632 84.1064 182.872 89.3553 184.03C90.9191 184.375 92.5369 184.602 94.1331 184.616C95.5568 184.63 96.887 183.415 97.0991 182.157C97.3292 180.766 96.6749 179.669 95.5209 178.997C94.6616 178.497 93.673 178.166 92.7023 177.911C87.6224 176.563 82.5318 175.258 77.4411 173.942C76.4561 173.687 75.4638 173.457 74.4752 173.216C74.3889 173.421 74.3026 173.629 74.2199 173.834C74.7017 174.115 75.1475 174.528 75.6652 174.654C80.1914 175.761 84.7284 176.818 89.2618 177.893C89.7004 177.997 90.1318 178.127 90.894 178.332C89.3229 179.083 88.2767 180.14 86.6446 179.64C84.4731 178.975 82.2657 178.432 80.0763 177.836C77.2758 177.073 74.4752 176.308 71.6351 175.531C71.3295 176.822 72.2139 176.757 72.8574 176.93C77.2434 178.105 81.6438 179.241 86.0082 180.489C87.2809 180.855 88.4601 181.553 89.8406 182.171C88.6686 183.207 87.6871 182.919 86.7057 182.664L86.6985 182.66Z" fill="#E44414"/>
<path d="M207.788 181.33C208.701 180.909 209.697 180.651 210.675 180.392C215.284 179.177 219.9 177.987 224.563 176.775C224.527 176.311 224.505 175.988 224.484 175.696C224.239 175.65 224.114 175.585 224.013 175.61C219.3 176.926 214.579 178.213 209.884 179.594C208.155 180.1 206.85 179.54 205.459 178.396C211.171 177.03 216.701 175.707 222.23 174.384C222.197 174.104 222.165 173.827 222.136 173.547C221.493 173.601 220.828 173.575 220.206 173.726C214.817 175.046 209.428 176.365 204.057 177.76C202.802 178.087 201.515 178.533 200.433 179.22C198.88 180.208 198.7 181.851 199.793 183.253C200.918 184.695 202.446 184.968 204.154 184.62C206.375 184.163 208.604 183.742 210.815 183.232C214.824 182.308 218.822 181.33 222.819 180.367C223.484 180.208 224.124 180 223.589 179.062C218.02 180.428 212.581 182.16 206.789 182.782C207.012 182.121 207.317 181.546 207.785 181.326L207.788 181.33Z" fill="#E44414"/>
<path d="M205.178 186.597C202.719 187.215 200.656 186.529 198.527 185.313C197.125 184.515 195.446 183.99 193.839 183.807C192.276 183.631 190.647 184.048 188.724 184.235C189.935 186.288 191.398 187.589 193.379 188.312C196.032 189.279 198.639 188.912 201.31 188.276C208.047 186.665 214.813 185.184 221.572 183.663C222.277 183.505 222.945 183.383 223.021 182.258C221.795 182.57 220.72 182.858 219.634 183.117C214.813 184.274 209.981 185.382 205.175 186.59L205.178 186.597Z" fill="#E44414"/>
<path d="M107.363 184.181C106.371 184.127 105.717 184.109 105.062 184.051C102.039 183.785 99.1591 183.908 96.5311 185.831C95.0032 186.953 93.1193 187.197 91.2068 186.737C85.4007 185.346 79.5946 183.972 73.6663 182.567C73.6447 182.66 73.5477 183.048 73.4326 183.53C74.939 183.897 76.2691 184.249 77.6065 184.537C84.3186 185.982 91.0234 187.456 97.7498 188.833C100.971 189.491 103.793 188.556 106.072 186.169C106.561 185.655 106.863 184.961 107.356 184.181H107.363Z" fill="#E44414"/>
<path d="M196.503 175.812C192.548 176.595 189.762 178.598 188.195 182.516C192.164 182.563 195.773 182.099 198.128 178.443C198.98 177.12 200.235 176.362 201.759 176.024C206.009 175.085 210.262 174.169 214.504 173.191C216.075 172.828 217.613 172.324 219.163 171.889C219.12 171.674 219.077 171.454 219.034 171.239C218.462 171.275 217.872 171.239 217.319 171.357C210.38 172.838 203.463 174.431 196.507 175.812H196.503Z" fill="#E44414"/>
<path d="M85.3792 172.918C82.7656 172.36 80.1771 171.692 77.5311 171.062C77.3981 171.487 77.3118 171.756 77.1968 172.112C84.0634 173.68 90.7359 175.2 97.3077 176.7C97.5774 180.086 103.146 182.948 107.802 182.383C106.54 178.325 103.47 176.61 99.5978 175.84C94.8523 174.898 90.1103 173.928 85.3792 172.918Z" fill="#E44414"/>
<path d="M174.397 186.529C171.489 185.479 168.509 185.756 165.521 185.946C166.265 190.052 172.927 192.687 178.036 190.933C177.593 188.628 176.429 187.262 174.394 186.529H174.397Z" fill="#E44414"/>
<path d="M176.867 185.561C181.088 190.429 187.764 192.23 190.342 189.207C187.117 183.634 181.99 184.986 176.867 185.561Z" fill="#E44414"/>
<path d="M119.859 187.801C118.882 188.668 117.846 189.728 118.508 191.332C123.818 192.446 127.765 190.347 131.342 186.061C128.818 185.968 126.676 185.885 124.537 185.81C122.671 185.745 121.161 186.654 119.863 187.798L119.859 187.801Z" fill="#E44414"/>
<path d="M113.734 184.997C109.948 184.896 106.889 186.198 106.069 189.915C111.012 191.594 116.768 189.66 118.907 185.579C117.156 185.374 115.448 185.04 113.737 184.997H113.734Z" fill="#E44414"/>
<path d="M108.327 177.217C107.939 179.953 108.945 181.909 111.649 182.728C114.075 183.462 116.632 183.757 119.45 184.31C118.105 179.903 112.724 176.574 108.323 177.221L108.327 177.217Z" fill="#E44414"/>
<path d="M176.576 184.044C178.179 183.886 179.538 183.771 180.893 183.609C181.659 183.519 182.432 183.404 183.18 183.207C186.329 182.376 187.961 180.514 188.062 177.692C185.031 175.901 179.509 178.842 176.576 184.044Z" fill="#E44414"/>
<path d="M176.267 178.49C172.168 177.39 166.132 181.05 165.168 184.839C167.796 184.515 170.356 184.353 172.851 183.85C175.483 183.322 176.989 180.816 176.267 178.49Z" fill="#E44414"/>
<path d="M119.536 178.547C119.597 181.359 120.981 183.372 123.591 183.901C126.014 184.389 128.506 184.548 131.123 184.868C129.325 179.949 122.678 177.383 119.532 178.547H119.536Z" fill="#E44414"/>
<path d="M158.104 179.906C156.756 182.02 155.455 184.059 154.056 186.252C155.257 187.057 156.53 187.905 157.953 188.862C159.28 185.96 160.624 183.311 160.042 180.19C159.305 180.083 158.669 179.989 158.104 179.906Z" fill="#E44414"/>
<path d="M137.975 179.781C137.576 179.852 137.13 179.935 136.548 180.043C136.329 183.232 136.962 185.996 138.5 188.678C139.938 187.79 141.261 186.971 142.627 186.126C140.988 183.89 139.514 181.884 137.975 179.784V179.781Z" fill="#E44414"/>
<path d="M143.433 187.442C142.023 188.308 140.65 189.149 139.212 190.03C140.352 191.285 141.369 192.41 142.426 193.575C144.13 192.446 145.525 191.522 146.952 190.577C145.679 189.441 144.623 188.502 143.433 187.442Z" fill="#E44414"/>
<path d="M155.936 179.32C154.559 179.09 153.352 178.889 152.126 178.688C151.155 179.863 150.253 180.956 149.289 182.121C150.396 183.153 151.475 184.152 152.719 185.31C153.783 183.146 155.462 181.661 155.936 179.32Z" fill="#E44414"/>
<path d="M140.014 179.647C141.362 181.632 142.559 183.394 143.81 185.231C144.946 184.217 145.992 183.282 147.121 182.272C145.989 181.032 144.917 179.856 143.846 178.677C142.591 178.993 141.455 179.281 140.014 179.647Z" fill="#E44414"/>
<path d="M149.627 190.645C151.079 191.634 152.446 192.565 154.146 193.726C155.03 192.55 155.89 191.411 156.767 190.246C155.48 189.361 154.081 188.405 152.658 187.427C151.568 188.585 150.601 189.61 149.627 190.645Z" fill="#E44414"/>
<path d="M144.31 194.431C148.178 197.335 148.969 196.818 152.147 194.463C150.864 193.593 149.595 192.73 148.174 191.767C146.938 192.619 145.679 193.485 144.306 194.431H144.31Z" fill="#E44414"/>
<path d="M144.979 186.273C146.05 187.452 147.064 188.571 148.085 189.696C149.249 188.624 150.285 187.672 151.381 186.662C150.253 185.597 149.224 184.623 148.077 183.541C146.967 184.522 145.917 185.446 144.979 186.277V186.273Z" fill="#E44414"/>
<path d="M251.117 152.638V140.95C249.359 141.036 247.68 141.011 246.037 141.23C244.437 141.442 243.721 142.51 243.664 144.099C243.592 145.962 244.671 146.903 246.109 147.389C244.858 149.111 243.642 150.786 242.427 152.461C242.6 152.63 242.776 152.799 242.949 152.968C243.517 152.562 244.182 152.242 244.624 151.732C245.246 151.016 245.71 150.164 246.227 149.359C247.043 148.086 248.165 147.536 249.804 147.817V152.745C250.318 152.702 250.692 152.674 251.117 152.638ZM249.715 146.659C248.974 146.659 248.327 146.706 247.69 146.648C246.616 146.551 245.756 146.091 245.325 145.016C244.825 143.783 245.174 142.855 246.465 142.51C247.428 142.255 248.456 142.237 249.718 142.079V146.655L249.715 146.659Z" fill="white"/>
<path d="M239.494 141.238H237.987V152.753C238.559 152.717 239.019 152.684 239.494 152.652V141.238Z" fill="white"/>
<path d="M64.2756 101.303C64.29 97.0574 64.3079 92.8116 64.4482 88.5694C64.5452 85.5459 63.8334 84.1223 60.4396 83.8023C55.935 83.3781 51.3764 83.5003 46.843 83.45C46.2246 83.4428 45.6063 83.8023 45.0742 83.9641C44.9879 84.2229 44.916 84.3308 44.916 84.4422C44.9232 99.0419 44.9304 113.645 44.9592 128.245C44.9592 128.932 45.1605 129.615 45.3079 130.557C49.737 130.557 54.0332 130.668 58.3149 130.499C59.8752 130.438 61.4247 129.751 62.9454 129.244C63.8658 128.939 64.3403 128.227 64.3403 127.177C64.3403 121.554 64.3691 115.928 64.4086 110.305C64.4158 109.159 63.9089 108.328 62.9418 107.828C61.892 107.285 60.7884 106.847 59.7026 106.376C59.2497 106.178 58.7895 106.006 58.0093 105.689C59.5409 105.208 60.7165 104.866 61.8741 104.467C63.3624 103.953 64.272 103.018 64.2792 101.31L64.2756 101.303ZM57.3191 125.283H51.8006V108.202C53.8139 108.486 55.5827 108.738 57.3191 108.982V125.279V125.283ZM57.4629 92.7038C57.4557 95.3893 57.4665 98.0784 57.4341 100.764C57.4126 102.443 57.0243 102.928 55.3957 103.097C54.2309 103.216 53.0445 103.119 51.7395 103.119V88.4148C53.5946 88.0841 55.4317 87.9834 57.4629 88.76C57.4629 90.1081 57.4629 91.4059 57.4629 92.7038Z" fill="white"/>
<path d="M62.9385 176.128C49.8344 171.677 37.4349 165.81 26.229 157.617C17.9603 151.57 10.9786 144.372 6.33733 135.079C1.54866 125.491 0.258026 115.472 2.62 105.071C5.28037 93.3617 11.9277 84.0432 20.8831 76.3101C30.3921 68.0989 41.2025 62.0017 52.8435 57.3676C57.1612 55.6491 61.5939 54.2111 65.9727 52.64C66.0698 52.6041 66.1381 52.4855 66.2855 52.3417C66.1884 51.9282 66.0842 51.4752 65.9476 50.9C64.718 51.3314 63.6539 51.7233 62.579 52.0792C54.1017 54.8906 45.9229 58.4353 38.1 62.7063C30.9997 66.5854 24.2912 71.1116 18.3701 76.702C13.9985 80.8292 9.91085 85.2116 6.82986 90.3957C1.64214 99.121 -0.752195 108.519 0.207695 118.725C1.00221 127.195 3.70213 134.95 8.5555 141.917C14.0704 149.833 21.1204 156.143 29.1266 161.485C39.707 168.546 51.1466 173.762 63.1865 177.739C64.0709 178.03 65.0344 178.094 65.9584 178.263C65.3652 176.653 64.0602 176.505 62.9349 176.124L62.9385 176.128Z" fill="white"/>
<path d="M64.9087 58.083C53.1779 62.0484 42.1554 66.8802 32.0891 73.7145C25.0499 78.4924 18.7729 84.0935 13.9447 91.1615C5.11152 104.089 4.13006 117.801 10.2453 132.052C13.125 138.764 17.795 144.232 23.22 149.046C34.9292 159.436 48.7919 165.914 63.3988 171.012C63.8374 171.167 64.3622 171.077 64.844 171.098L65.0525 170.591C64.657 170.293 64.3047 169.876 63.8625 169.718C53.5266 166.033 43.5071 161.668 34.2893 155.65C26.8115 150.768 20.0168 145.102 15.1131 137.524C7.27936 125.423 5.35958 112.7 11.331 99.1714C15.2892 90.2016 21.6202 83.2559 29.3532 77.4642C38.4236 70.673 48.4935 65.7442 59.0307 61.7105C61.0799 60.9267 63.1579 60.2149 65.3185 59.4348C65.1783 58.9746 65.0669 58.6115 64.9015 58.0758L64.9087 58.083Z" fill="white"/>
<path d="M53.5264 152.738V141.097C53.21 141.058 52.7462 141.004 52.0668 140.925V146.817C51.0781 146.903 50.2584 147.004 49.4387 147.036C47.2529 147.126 46.6705 146.67 46.4368 144.462C46.3146 143.305 46.4153 142.118 46.4153 140.946C46.2247 140.878 46.0378 140.813 45.8472 140.745C45.5956 141.133 45.1642 141.504 45.1318 141.906C45.0491 142.974 45.1067 144.06 45.1714 145.131C45.2828 147.051 46.1456 147.96 48.0834 148.086C49.3848 148.172 50.6934 148.101 52.2501 148.101V152.738H53.5264Z" fill="white"/>
<path d="M290.637 92.6822C285.529 83.3637 278.123 76.0908 269.595 69.9037C259.781 62.7818 248.949 57.6229 237.599 53.4957C235.521 52.7407 233.425 52.0325 231.322 51.353C230.689 51.1481 229.869 50.8066 229.697 52.1835C230.488 52.4855 231.297 52.8234 232.127 53.1002C245.814 57.6912 258.778 63.7057 270.408 72.3915C277.982 78.0502 284.475 84.6615 288.994 93.0561C294.207 102.738 295.926 112.933 293.675 123.773C291.425 134.601 285.816 143.477 277.918 150.984C268.294 160.133 257.037 166.759 244.8 171.756C240.435 173.539 235.938 174.995 231.512 176.62C230.887 176.851 229.992 176.98 230.61 178.375C231.153 178.253 231.67 178.191 232.149 178.023C235.244 176.919 238.354 175.844 241.417 174.661C254.233 169.711 266.201 163.272 276.609 154.183C282.289 149.222 287.118 143.556 290.688 136.859C293.747 131.114 295.444 125.024 295.875 118.531C296.483 109.421 295.045 100.728 290.637 92.6894V92.6822Z" fill="white"/>
<path d="M61.8168 140.785C59.6633 144.516 58.2289 148.575 56.4673 152.67H57.9305C58.4518 151.458 58.9659 150.268 59.4656 149.111C61.1589 149.111 62.712 149.111 64.265 149.114C64.4376 149.114 64.6102 149.183 64.7684 149.219C65.8037 151.587 66.772 152.674 67.6732 152.479C65.8792 148.568 64.0853 144.66 62.2913 140.749L61.8168 140.785ZM62.2949 148.043C61.6478 148.054 61.0007 148.043 60.03 148.043C60.6915 146.346 61.2703 144.865 62.0001 142.985C62.7803 144.84 63.4022 146.325 64.0889 147.96C63.3231 147.996 62.8054 148.029 62.2913 148.039L62.2949 148.043Z" fill="white"/>
<path d="M171.557 130.449C172.197 130.434 172.848 130.193 173.459 129.963C175.357 129.251 175.749 128.68 175.774 126.638C175.828 122.025 175.763 117.409 175.961 112.804C176.047 110.784 175.246 109.626 173.545 108.882C172.531 108.439 171.489 108.058 170.09 107.501C171.967 106.8 173.495 106.229 175.199 105.589C175.436 104.744 175.907 103.856 175.896 102.979C175.832 98.3589 176.27 93.7104 175.526 89.328C171.41 87.1961 159.941 86.7036 157.317 88.458V130.211C157.881 130.391 158.27 130.625 158.661 130.621C162.961 130.589 167.261 130.542 171.561 130.441L171.557 130.449ZM168.954 125.922C167.398 126.002 165.967 126.073 164.32 126.156V110.118C165.895 110.223 167.333 110.32 168.954 110.424V125.922ZM164.126 92.2832H168.954V104.625C167.477 104.898 166.082 105.157 164.302 105.488C163.964 100.933 164.201 96.6907 164.126 92.2796V92.2832Z" fill="white"/>
<path d="M184.216 130.312H197.845C198.114 128.781 199.024 127.44 198.28 125.66H190.859V110.09C192.833 109.978 194.717 109.87 196.741 109.755C196.874 108.231 196.993 106.84 197.14 105.161H190.834V92.2148C193.232 92.0962 195.54 91.9812 198.028 91.8589C198.161 90.3849 198.28 89.0584 198.413 87.5592H184.075C183.971 88.271 183.888 89.7558 183.82 91.7655C183.802 92.3694 183.781 93.0166 183.766 93.7068C183.745 94.6272 183.727 95.6158 183.709 96.662C183.518 108.957 183.719 128.892 184.212 130.312H184.216Z" fill="white"/>
<path d="M98.3539 121.145H103.915C104.164 124.287 104.401 127.292 104.634 130.265H111.375C110.232 116.457 109.107 102.828 107.953 89.2022C107.917 88.76 107.593 88.3393 107.28 87.6275C103.653 87.6275 100.13 87.5844 96.6102 87.6455C94.8414 87.6778 94.41 88.0985 94.2375 89.878C93.8025 94.282 93.4358 98.6896 93.0439 103.097C92.4867 109.353 91.9114 115.608 91.383 121.864C91.1493 124.643 91.0055 127.429 90.8149 130.269H97.4874C97.7894 127.109 98.0734 124.1 98.3539 121.145ZM100.018 92.391H102.129C102.646 100.286 103.164 108.123 103.689 116.108H98.379C98.7241 108.066 99.1951 100.243 100.018 92.391Z" fill="white"/>
<path d="M231.664 171.228C232.181 171.124 232.667 171.084 233.109 170.929C242.363 167.654 251.404 163.905 259.802 158.749C267.456 154.05 274.506 148.625 280.086 141.518C289.58 129.424 292.208 115.932 287.38 101.314C283.767 90.3777 276.067 82.3751 267.025 75.699C256.836 68.178 245.418 62.9544 233.479 58.8416C232.756 58.5935 232.027 58.3742 231.149 58.0938V59.6145C240.669 62.7243 249.754 66.6645 258.296 71.7803C268.006 77.5936 276.699 84.4962 282.563 94.4654C287.837 103.439 289.483 112.977 287.265 123.133C284.889 134.011 278.633 142.492 270.311 149.528C262.811 155.866 254.284 160.619 245.339 164.58C241.14 166.439 236.797 167.974 232.501 169.617C231.689 169.926 231.045 170.171 231.66 171.231L231.664 171.228Z" fill="white"/>
<path d="M86.8424 125.66H79.4222V87.5089H72.8359V130.319H86.6016C86.6806 128.813 86.7525 127.368 86.8424 125.66Z" fill="white"/>
<path d="M105.86 141.295C105.86 141.202 105.731 141.108 105.63 140.971C105.321 140.993 104.987 141.018 104.527 141.051V146.141H97.3544V140.932C96.808 140.968 96.4305 140.989 96.0674 141.015V152.878C96.6031 152.803 96.9769 152.749 97.4407 152.684V147.446H104.652V152.85C105.907 153.101 105.904 152.404 105.904 151.71C105.893 148.241 105.882 144.768 105.86 141.299V141.295Z" fill="white"/>
<path d="M223.88 141.18C222.406 141.054 220.91 141.155 219.39 141.155V152.699H220.659V147.367C221.773 147.367 222.715 147.399 223.661 147.36C225.455 147.288 226.476 146.213 226.54 144.383C226.605 142.596 225.638 141.331 223.88 141.18ZM220.781 146.199V142.28C224.017 142.079 225.023 142.55 225.048 144.221C225.077 145.99 224.369 146.332 220.781 146.202V146.199Z" fill="white"/>
<path d="M175.314 147.213C174.875 146.925 174.383 146.713 173.901 146.458C175.583 145.167 175.907 144.452 175.447 143.06C174.976 141.633 174.023 141.025 172.057 141.018C170.996 141.015 169.939 141.126 168.749 141.194V152.792C170.759 152.656 172.607 152.587 174.436 152.379C175.706 152.235 176.478 151.336 176.673 150.128C176.867 148.92 176.356 147.896 175.314 147.213ZM170.209 142.327C170.956 142.327 171.708 142.276 172.452 142.341C173.405 142.424 174.181 142.812 174.307 143.898C174.404 144.75 173.491 145.854 172.517 146.008C171.823 146.12 171.111 146.112 170.209 146.17V142.33V142.327ZM175.296 149.47C175.188 150.43 174.702 151.217 173.689 151.368C172.592 151.534 171.474 151.534 170.183 151.617V147.216C171.488 147.367 172.714 147.443 173.912 147.673C174.821 147.845 175.407 148.471 175.296 149.467V149.47Z" fill="white"/>
<path d="M155.987 141.202H154.729V152.993C154.84 153.044 154.951 153.094 155.059 153.144C157.806 149.966 160.553 146.785 163.238 143.675V152.656H164.396V140.63C161.394 144.146 158.622 147.392 155.987 150.477V141.202Z" fill="white"/>
<path d="M140.744 152.648H142.243V142.363H149.196V152.591C149.699 152.62 150.091 152.641 150.591 152.67V141.087H140.744V152.652V152.648Z" fill="white"/>
<path d="M77.8188 142.176C78.7967 142.453 79.735 142.888 80.7524 143.272C80.3354 141.464 78.2394 140.547 75.633 140.918C72.1278 141.417 69.7946 144.171 70.0965 147.461C70.4057 150.847 72.8576 152.781 76.7726 152.731C79.6523 152.695 80.605 152.195 80.6949 150.495C79.8177 150.862 79.131 151.25 78.394 151.44C76.3664 151.969 74.443 151.724 72.9007 150.2C71.5526 148.87 71.2434 147.223 71.7898 145.404C72.4729 143.125 75.4389 141.496 77.8188 142.172V142.176Z" fill="white"/>
<path d="M210.395 140.835C208.694 144.728 206.997 148.618 205.25 152.616H206.728C207.26 151.422 207.763 150.297 208.256 149.197H213.645C214.63 151.553 215.566 152.63 216.452 152.429C214.669 148.5 213.127 144.484 211.031 140.731L210.391 140.835H210.395ZM208.809 147.96C209.474 146.289 210.085 144.757 210.833 142.881C211.642 144.754 212.311 146.292 213.033 147.96H208.813H208.809Z" fill="white"/>
<path d="M185.743 140.885C181.907 140.86 179.279 143.265 179.276 146.803C179.276 150.322 181.907 152.789 185.704 152.814C189.259 152.839 191.834 150.419 191.884 147.004C191.934 143.582 189.252 140.907 185.747 140.885H185.743ZM185.952 151.66C183.069 151.703 180.725 149.593 180.692 146.932C180.66 144.265 182.828 142.143 185.628 142.111C188.242 142.079 190.413 144.189 190.475 146.821C190.532 149.269 188.332 151.627 185.952 151.663V151.66Z" fill="white"/>
<path d="M222.766 113.789C222.643 111.499 222.086 110.722 219.936 109.978C218.94 109.633 217.937 109.32 216.938 108.993C216.949 108.874 216.96 108.752 216.974 108.634C217.546 108.465 218.11 108.281 218.685 108.127C221.842 107.289 222.712 106.193 222.73 102.939C222.751 99.5848 222.651 96.2269 222.776 92.8763C222.888 89.9104 222.162 88.458 218.667 87.8576C213.997 87.0523 209.262 87.4729 204.352 87.8252V130.294H210.985V111.258C212.696 111.463 214.145 111.639 215.913 111.851C216.294 118.099 216.665 124.211 217.035 130.265H223.654C223.352 124.661 223.057 119.225 222.769 113.789H222.766ZM215.863 105.851C214.393 106.092 212.865 106.344 211.078 106.638V92.3694C212.721 91.9452 214.27 91.8985 215.863 92.8224V105.851Z" fill="white"/>
<path d="M201.637 146.939C200.217 146.335 198.606 146.174 196.985 145.796V142.363C200.354 142.19 200.864 142.489 200.864 144.531C200.422 144.833 200.001 145.124 199.537 145.44C199.954 145.778 200.037 145.904 200.127 145.911C201.425 145.994 202.122 145.473 202.266 144.333C202.453 142.837 201.723 141.446 200.422 141.313C198.84 141.151 197.229 141.274 195.547 141.274V152.591C197.222 152.591 198.772 152.648 200.314 152.576C201.921 152.497 202.992 151.609 203.334 150.254C203.711 148.748 203.327 147.669 201.63 146.947L201.637 146.939ZM201.971 149.24C201.871 149.974 201.227 150.995 200.58 151.214C199.48 151.591 198.196 151.444 196.917 151.52V147.184C198.229 147.338 199.473 147.32 200.602 147.68C201.198 147.871 202.036 148.769 201.971 149.237V149.24Z" fill="white"/>
<path d="M84.2033 141.126C83.3944 141.122 82.9522 141.335 83.2902 142.356H87.6438V152.932C88.1148 152.803 88.424 152.717 88.877 152.594V142.241H92.961V141.133C89.9231 141.133 87.065 141.144 84.2033 141.126Z" fill="white"/>
<path d="M233.289 129.546C234.202 129.953 235.212 130.334 236.193 130.377C240.317 130.567 244.444 130.664 248.571 130.711C249.409 130.722 250.25 130.355 251.023 130.179V103.331C248.737 103.798 246.659 104.222 244.39 104.69V125.491C242.424 125.869 240.694 126.196 238.861 124.905V88.5838C240.716 88.4616 242.345 88.3537 244.131 88.2351C244.293 89.8529 244.426 91.1974 244.577 92.7361C246.767 92.4521 248.859 92.1825 251.135 91.8877C251.135 90.5647 251.145 89.4359 251.135 88.307C251.102 85.7221 250.009 84.1007 247.442 83.8167C244.372 83.4752 241.248 83.4932 238.153 83.5794C236.625 83.6226 235.075 84.0468 233.605 84.5142C232.307 84.9276 231.423 85.7401 231.426 87.3938C231.473 100.448 231.459 113.505 231.426 126.559C231.423 128.018 232.055 128.996 233.289 129.546Z" fill="white"/>
<path d="M125.846 141.237C124.375 141.371 123.2 142.568 122.977 143.819C122.754 145.073 123.527 146.425 124.896 147.162C125.13 147.288 125.385 147.367 125.529 147.428C124.228 149.15 122.977 150.804 121.726 152.461L122.038 152.785C122.545 152.727 123.049 152.673 123.25 152.648C124.659 150.815 125.882 149.219 127.057 147.691C127.837 147.795 128.362 147.867 129.006 147.953C129.078 149.571 129.149 151.138 129.225 152.824C129.825 152.724 130.199 152.659 130.602 152.591V141.205C128.93 141.205 127.381 141.097 125.849 141.237H125.846ZM129.07 146.537C127.338 146.846 125.741 146.745 124.778 145.149C124.494 144.682 124.566 143.671 124.896 143.218C125.946 141.77 127.51 142.219 129.074 142.366V146.54L129.07 146.537Z" fill="white"/>
<path d="M142.2 97.0862C142.282 106.013 142.329 114.936 142.422 123.862C142.444 126.002 142.617 128.137 142.724 130.416H148.901C148.886 116.101 148.013 102.026 147.955 87.8252C144.281 87.4298 140.826 87.2752 137.299 88.1668C136.002 97.6794 134.715 107.088 133.517 115.867C132.223 106.915 130.839 97.363 129.43 87.5987C126.457 87.5987 123.829 87.5089 121.211 87.6275C119.036 87.7246 118.997 87.9115 118.921 90.162C118.731 95.6697 118.483 101.174 118.328 106.681C118.13 113.688 117.997 120.695 117.861 127.702C117.843 128.568 117.997 129.435 118.069 130.298H124.31C124.31 127.206 124.278 124.276 124.321 121.346C124.364 118.351 124.497 115.36 124.555 112.365C124.609 109.432 124.555 106.491 124.656 103.561C124.756 100.627 124.318 97.6578 125.281 94.735C126.795 98.5278 126.73 102.594 127.395 106.513C128.064 110.46 128.434 114.454 128.977 118.423C129.523 122.424 130.12 126.422 130.692 130.384H136.289C137.087 124.326 137.983 118.481 138.601 112.606C139.525 103.877 140.794 96.1263 141.944 94.9219C142.052 95.8027 142.192 96.4463 142.2 97.0898V97.0862Z" fill="white"/>
<path d="M108.726 152.551C108.88 152.652 109.035 152.753 109.189 152.853C111.073 152.505 110.75 150.272 111.954 149.186H116.919C118.194 151.6 119.108 152.816 119.662 152.835C119.687 151.282 115.657 142.151 114.118 140.576C112.256 144.714 110.491 148.633 108.729 152.551H108.726ZM116.433 147.96H112.335C113 146.292 113.64 144.692 114.391 142.812C115.132 144.678 115.75 146.242 116.433 147.96Z" fill="white"/>
<path d="M230.991 147.392H237.498C237.534 147.18 237.566 146.972 237.602 146.76C236.8 145.879 235.632 146.375 234.64 146.303C233.471 146.217 232.292 146.281 230.966 146.281V141.007C230.434 140.971 230.053 140.95 229.621 140.921V152.742C230.103 152.713 230.48 152.688 230.987 152.656V147.392H230.991Z" fill="white"/>
</svg>
