<svg width="43" height="57" viewBox="0 0 43 57" fill="none" xmlns="http://www.w3.org/2000/svg">
<path d="M0.00664737 28.4261C0.00664737 20.7178 0.013289 13.0072 5.7648e-06 5.29892C-0.00220811 3.53708 0.633172 2.10349 1.99913 1.01602C2.72085 0.444368 3.55105 0.104951 4.47866 0.0513591C4.79968 0.0334951 5.12069 0.00669901 5.4417 0.00669901C12.9047 0.00446601 20.3654 0.00669901 27.8283 0C28.4925 0 29.0172 0.216601 29.4954 0.701163C33.642 4.91038 37.804 9.10619 41.9617 13.3042C42.0724 13.4159 42.1764 13.532 42.2916 13.6392C42.8052 14.117 43 14.7021 43 15.4055C42.9911 27.2694 42.9934 39.1334 42.9934 50.9996C42.9934 51.7789 43.0133 52.5537 42.7985 53.3174C42.2119 55.4031 40.5913 56.7696 38.4527 56.9505C38.1051 56.9796 37.7553 56.9974 37.4078 56.9974C26.6661 56.9997 15.9222 57.0019 5.18046 56.9974C3.41379 56.9974 1.95928 56.3186 0.91212 54.8649C0.250173 53.9471 -0.0022081 52.882 0.0044335 51.7454C0.013289 50.1957 0.00886124 48.6482 0.00886124 47.0985C0.00886124 40.8751 0.00886124 34.6495 0.00886124 28.4261H0.0044335H0.00664737ZM26.4779 3.34504H26.2144C19.1212 3.34504 12.0257 3.34504 4.93251 3.34504C4.06467 3.34504 3.34295 4.03727 3.30089 4.90591C3.28317 5.28552 3.29424 5.66736 3.29424 6.04697C3.29424 21.1108 3.29424 36.1769 3.29424 51.2407C3.29424 51.473 3.29424 51.7052 3.3031 51.9352C3.34295 52.9735 4.04696 53.6568 5.07198 53.6568C15.8513 53.6568 26.6306 53.6568 37.4078 53.6568C37.6469 53.6568 37.886 53.6658 38.1251 53.6568C38.9774 53.63 39.6571 52.9646 39.6991 52.1049C39.7213 51.6516 39.7102 51.1961 39.7102 50.7428C39.7102 39.5376 39.7102 28.3323 39.7102 17.1271C39.7102 16.9932 39.7102 16.8569 39.7102 16.7029C39.5552 16.7029 39.4467 16.7029 39.3383 16.7029C36.7569 16.7029 34.1733 16.7051 31.5919 16.7029C30.0068 16.7006 28.6652 16.1111 27.6291 14.9008C26.79 13.9205 26.4668 12.7371 26.4712 11.4508C26.4779 8.90075 26.4757 6.34843 26.4779 3.79834C26.4779 3.65989 26.4779 3.52368 26.4779 3.34727V3.34504ZM37.379 13.3623C34.8308 10.7988 32.3336 8.28221 29.8341 5.76785C29.812 5.78795 29.7876 5.80581 29.7655 5.82591C29.7655 5.98222 29.7655 6.13853 29.7655 6.29707C29.7655 8.10357 29.7544 9.9123 29.7788 11.7188C29.7921 12.6656 30.5426 13.3623 31.4768 13.3623C32.7896 13.3623 34.1025 13.3623 35.4153 13.3623H37.379Z" fill="#FFC400"/>
<path d="M21.5498 23.6028C24.7843 23.6028 28.0165 23.6028 31.251 23.6028C31.7225 23.6028 32.1675 23.7033 32.5262 24.0338C33.011 24.4804 33.1682 25.0454 33.0066 25.6773C32.8405 26.3271 32.3933 26.7157 31.758 26.8809C31.5831 26.9256 31.3949 26.9434 31.2134 26.9434C24.7289 26.9457 18.2423 26.9457 11.7579 26.9434C10.8325 26.9434 10.1196 26.3874 9.97792 25.5612C9.80523 24.5541 10.5115 23.7056 11.6029 23.6118C11.7313 23.6006 11.8597 23.6028 11.9881 23.6028C15.1761 23.6028 18.3641 23.6028 21.5498 23.6028Z" fill="#FFC400"/>
<path d="M21.5498 30.2818C24.7843 30.2818 28.0165 30.2818 31.251 30.2818C31.7225 30.2818 32.1675 30.3822 32.5262 30.7127C33.011 31.1593 33.1682 31.7243 33.0066 32.3562C32.8405 33.006 32.3933 33.3946 31.758 33.5598C31.5831 33.6045 31.3949 33.6223 31.2134 33.6223C24.7289 33.6246 18.2423 33.6246 11.7579 33.6223C10.8325 33.6223 10.1196 33.0663 9.97792 32.2401C9.80523 31.233 10.5115 30.3845 11.6029 30.2907C11.7313 30.2795 11.8597 30.2818 11.9881 30.2818C15.1761 30.2818 18.3641 30.2818 21.5498 30.2818Z" fill="#FFC400"/>
<path d="M21.5277 36.9607C24.771 36.9607 28.0121 36.9607 31.2554 36.9607C31.727 36.9607 32.172 37.0634 32.5284 37.3961C33.011 37.8449 33.166 38.4099 33.0022 39.0418C32.8295 39.7028 32.3734 40.0913 31.7225 40.2432C31.5454 40.2856 31.3595 40.299 31.1757 40.299C24.709 40.3013 18.2423 40.3013 11.7756 40.299C10.8413 40.299 10.1285 39.7586 9.97791 38.9369C9.78973 37.9209 10.5048 37.0567 11.6095 36.9674C11.7379 36.9562 11.8663 36.9584 11.9947 36.9584C15.1739 36.9584 18.3508 36.9584 21.5299 36.9584L21.5277 36.9607Z" fill="#FFC400"/>
<path d="M18.1648 46.9802C16.0151 46.9802 13.8655 46.9824 11.718 46.9802C10.8103 46.9802 10.0997 46.3951 9.97128 45.56C9.81852 44.5641 10.5292 43.7334 11.6118 43.6485C11.7025 43.6418 11.7955 43.6418 11.8863 43.6418C16.1391 43.6418 20.392 43.6418 24.6448 43.6418C25.1363 43.6418 25.5968 43.7557 25.9576 44.1175C26.4071 44.5663 26.5487 45.1178 26.3871 45.7252C26.2167 46.375 25.7672 46.7613 25.1319 46.9176C24.9393 46.9668 24.7312 46.9779 24.5319 46.9779C22.411 46.9824 20.2879 46.9802 18.167 46.9802H18.1648Z" fill="#FFC400"/>
</svg>
