<svg display="none" xmlns="http://www.w3.org/2000/svg">

	<symbol id="search" viewBox="0 0 14 14">
		<path
			d="M13.6148 13.6148C13.4928 13.7369 13.3479 13.8338 13.1884 13.8999C13.0289 13.966 12.8579 14 12.6853 14C12.5126 14 12.3417 13.966 12.1822 13.8999C12.0227 13.8338 11.8778 13.7369 11.7557 13.6148L9.43562 11.2947C8.4811 11.9056 7.35303 12.2711 6.13556 12.2711C2.74698 12.2711 0 9.52415 0 6.13556C0 2.74698 2.74698 0 6.13556 0C9.52415 0 12.2711 2.74698 12.2711 6.13556C12.2711 7.35303 11.9056 8.4811 11.2947 9.43562L13.6148 11.7557C13.7369 11.8778 13.8338 12.0227 13.8999 12.1822C13.966 12.3417 14 12.5126 14 12.6853C14 12.8579 13.966 13.0289 13.8999 13.1884C13.8338 13.3479 13.7369 13.4928 13.6148 13.6148ZM6.13556 1.75302C3.71552 1.75302 1.75302 3.71464 1.75302 6.13556C1.75302 8.55648 3.71552 10.5181 6.13556 10.5181C8.55648 10.5181 10.5181 8.55648 10.5181 6.13556C10.5181 3.71464 8.55648 1.75302 6.13556 1.75302Z" />
	</symbol>

	<symbol id="basket" viewBox="0 0 28 28">
		<path
			d="M22.4 22.4C20.846 22.4 19.6 23.646 19.6 25.2C19.6 25.9426 19.895 26.6548 20.4201 27.1799C20.9452 27.705 21.6574 28 22.4 28C23.1426 28 23.8548 27.705 24.3799 27.1799C24.905 26.6548 25.2 25.9426 25.2 25.2C25.2 24.4574 24.905 23.7452 24.3799 23.2201C23.8548 22.695 23.1426 22.4 22.4 22.4ZM0 0V1.08481C0 2.03208 0.767916 2.8 1.71519 2.8C2.3777 2.8 2.98097 3.18156 3.26489 3.78015L6.1588 9.88147C7.21398 12.1061 7.13101 14.7032 5.936 16.856C5.726 17.248 5.6 17.71 5.6 18.2C5.6 18.9426 5.895 19.6548 6.4201 20.1799C6.9452 20.705 7.65739 21 8.4 21H23.8C24.5732 21 25.2 20.3732 25.2 19.6C25.2 18.8268 24.5732 18.2 23.8 18.2H8.988C8.89517 18.2 8.80615 18.1631 8.74051 18.0975C8.67487 18.0318 8.638 17.9428 8.638 17.85C8.638 17.78 8.652 17.724 8.68 17.682C9.45736 16.2741 10.9385 15.4 12.5467 15.4H20.37C21.42 15.4 22.344 14.812 22.82 13.958L27.832 4.9C27.93 4.676 28 4.438 28 4.2C28 3.8287 27.8525 3.4726 27.59 3.21005C27.3274 2.9475 26.9713 2.8 26.6 2.8H8.98784C7.09952 2.8 5.38122 1.70897 4.578 0M8.4 22.4C6.846 22.4 5.6 23.646 5.6 25.2C5.6 25.9426 5.895 26.6548 6.4201 27.1799C6.9452 27.705 7.65739 28 8.4 28C9.14261 28 9.8548 27.705 10.3799 27.1799C10.905 26.6548 11.2 25.9426 11.2 25.2C11.2 24.4574 10.905 23.7452 10.3799 23.2201C9.8548 22.695 9.14261 22.4 8.4 22.4Z" />
	</symbol>

	<symbol id="next" viewBox="0 0 32 55">
		<path d="M2 2L28 27.5L2 53" stroke-width="5" />
	</symbol>

	<symbol id="prev" viewBox="0 0 22 35">
		<path d="M20 33L4 17.5L20 2" stroke-width="5" />
	</symbol>

	<symbol id="close" viewBox="0 0 25 25">
		<path
			d="M2.96875 0L0 2.96875L9.53125 12.5L0 22.0312L2.96875 25L12.5 15.4688L22.0312 25L25 22.0312L15.4688 12.5L25 2.96875L22.0312 0L12.5 9.53125L2.96875 0Z" />
	</symbol>

	<symbol id="arrow-bottom" viewBox="0 0 23 13">
		<path d="M1.5 1.5L11.5 11.5L21.5 1.5" stroke-width="2" />
	</symbol>

	<symbol id="delete" viewBox="0 0 18 21">
		<path
			d="M1.00161 12.0738C1.00161 10.355 1.00161 8.63618 1.00349 6.91828C1.00349 6.76292 1.00537 6.60218 1.0411 6.45221C1.14737 6.00321 1.56399 5.71315 2.04832 5.73111C2.51948 5.74907 2.90224 6.07594 2.97747 6.53034C2.99346 6.62553 3.00098 6.72341 3.00098 6.8195C3.00192 10.3235 3.0038 13.8285 3.00098 17.3325C3.00098 18.1641 3.72136 18.8591 4.38061 19.0217C4.55929 19.0657 4.74926 19.0881 4.93453 19.0881C7.65616 19.0926 10.3778 19.0917 13.0994 19.0917C14.0399 19.0917 14.8778 18.3886 14.9916 17.5004C15.001 17.4268 14.9982 17.3514 14.9982 17.2768C14.9982 13.7647 14.9982 10.2535 14.9982 6.74137C14.9982 6.2789 15.2502 5.92059 15.6725 5.7805C16.3054 5.57126 16.9355 5.98165 16.9853 6.639C16.9957 6.7728 16.9966 6.9075 16.9966 7.04131C16.9966 10.3891 16.9966 13.7369 16.9985 17.0847C16.9985 17.9063 16.8123 18.6768 16.3223 19.3593C15.6819 20.2502 14.7885 20.7728 13.675 20.9434C13.407 20.9847 13.1314 20.9955 12.8587 20.9964C10.2226 21 7.58751 20.9964 4.95146 21C3.25772 21.0027 1.87904 20.049 1.25835 18.5861C1.07684 18.1587 1.00443 17.7043 1.00443 17.2418C1.00443 15.5194 1.00443 13.797 1.00443 12.0747L1.00161 12.0738Z" />
		<path
			d="M8.98683 4.77383C6.35454 4.77383 3.72319 4.77383 1.0909 4.77383C0.683686 4.77383 0.34983 4.64092 0.13635 4.29429C-0.237005 3.68903 0.198419 2.91135 0.931963 2.86915C1.01378 2.86466 1.0956 2.86466 1.17742 2.86466C2.39999 2.86466 3.62162 2.86466 4.84419 2.86466C4.99749 2.86466 4.99655 2.86376 4.99655 2.72008C4.99655 2.14984 4.99467 1.5796 4.99655 1.00847C5.00031 0.411289 5.42163 0.00359204 6.04984 0.00269403C8.00972 -0.000898011 9.97054 -0.000898011 11.9304 0.00269403C12.5483 0.00359204 12.9357 0.353816 12.9903 0.942912C12.9969 1.01296 12.9978 1.0848 12.9978 1.15484C12.9978 1.69545 12.9997 2.23605 12.9959 2.77665C12.9959 2.85029 13.0241 2.86645 13.0909 2.86555C13.2038 2.86286 13.3176 2.86555 13.4304 2.86555C14.5749 2.86555 15.7185 2.86555 16.863 2.86555C17.0643 2.86555 17.2599 2.88082 17.4433 2.96883C17.8194 3.14843 18.0555 3.57049 17.9887 3.95035C17.9126 4.38768 17.5843 4.70019 17.1376 4.75317C17.0295 4.76575 16.9204 4.77383 16.8113 4.77383C14.2025 4.77473 11.5947 4.77383 8.98589 4.77383H8.98683ZM10.9956 1.91636C10.9712 1.91366 10.9552 1.91097 10.9401 1.91097C9.65643 1.91097 8.37273 1.91097 7.08903 1.90917C7.00251 1.90917 6.98464 1.9406 6.98652 2.01514C6.99498 2.26119 7.00251 2.50635 6.99874 2.7524C6.99686 2.8431 7.02037 2.86735 7.11348 2.86645C8.35016 2.86466 9.58683 2.86645 10.8235 2.86645C10.9956 2.86645 10.9956 2.86645 10.9947 2.70661C10.9947 2.44708 10.9947 2.18666 10.9947 1.91725L10.9956 1.91636Z" />
		<path
			d="M7.99935 11.9489C7.99935 13.0301 7.99935 14.1113 7.99935 15.1926C7.99935 15.7394 7.69465 16.1112 7.16612 16.2136C6.66016 16.3115 6.10907 15.9523 6.02443 15.4664C6.00844 15.3749 5.99998 15.2815 5.99998 15.189C5.99903 13.0005 5.99809 10.8121 5.99998 8.6236C5.99998 8.05965 6.44762 7.6313 7.02505 7.63759C7.54042 7.64298 7.95609 8.02912 7.98807 8.53829C8.00029 8.72777 7.99841 8.91815 7.99935 9.10853C8.00029 10.055 7.99935 11.0024 7.99935 11.9489Z" />
		<path
			d="M10.0016 11.9274C10.0016 10.8354 10.0091 9.74252 9.99879 8.65054C9.99221 8.03181 10.4784 7.6295 11.0173 7.63669C11.5496 7.64387 11.9559 8.03451 11.9953 8.57691C11.9982 8.61372 11.9982 8.65144 11.9982 8.68826C11.9982 10.8507 11.9982 13.0131 11.9982 15.1755C11.9982 15.5437 11.8853 15.8598 11.5458 16.0681C11.2289 16.2621 10.8932 16.289 10.5555 16.1265C10.216 15.963 10.0138 15.6936 10.0063 15.3273C9.99315 14.6564 9.99974 13.9856 9.99879 13.3139C9.99879 12.8514 9.99879 12.389 9.99879 11.9274H10.0016Z" />
	</symbol>

	<symbol id="print" viewBox="0 0 27 25">
		<path
			d="M19.6053 1.91152e-07C19.9619 -0.000183009 20.3061 0.131325 20.5717 0.369297C20.8374 0.607269 21.0058 0.934947 21.0447 1.28947L21.0526 1.44737V5.26316H22.3684C23.3753 5.2631 24.3441 5.6478 25.0767 6.33853C25.8092 7.02927 26.2501 7.97383 26.3092 8.97895L26.3158 9.21053V18.4211C26.316 19.085 26.0653 19.7244 25.6138 20.2112C25.1624 20.6981 24.5436 20.9963 23.8816 21.0461L23.6842 21.0526H21.0526V23.5526C21.0528 23.9093 20.9213 24.2535 20.6833 24.5191C20.4454 24.7848 20.1177 24.9532 19.7632 24.9921L19.6053 25H6.71053C6.35387 25.0002 6.00971 24.8687 5.74405 24.6307C5.4784 24.3927 5.30996 24.0651 5.27105 23.7105L5.26316 23.5526V21.0526H2.63158C1.96766 21.0528 1.3282 20.8021 0.841384 20.3507C0.354567 19.8992 0.0563728 19.2805 0.0065791 18.6184L6.1343e-09 18.4211V9.21053C-5.60812e-05 8.20367 0.384638 7.23485 1.07537 6.50229C1.76611 5.76973 2.71067 5.32881 3.71579 5.26974L3.94737 5.26316H5.26316V1.44737C5.26297 1.09071 5.39448 0.746548 5.63245 0.480894C5.87043 0.21524 6.1981 0.0468028 6.55263 0.00789498L6.71053 1.91152e-07H19.6053ZM18.4211 17.1053H7.89474V22.3684H18.4211V17.1053ZM22.3684 7.89474H3.94737C3.62509 7.89478 3.31403 8.0131 3.07319 8.22726C2.83236 8.44141 2.6785 8.73651 2.64079 9.05658L2.63158 9.21053V18.4211H5.26316V15.9211C5.26297 15.5644 5.39448 15.2202 5.63245 14.9546C5.87043 14.6889 6.1981 14.5205 6.55263 14.4816L6.71053 14.4737H19.6053C19.9619 14.4735 20.3061 14.605 20.5717 14.843C20.8374 15.081 21.0058 15.4086 21.0447 15.7632L21.0526 15.9211V18.4211H23.6842V9.21053C23.6842 8.86156 23.5456 8.52688 23.2988 8.28012C23.0521 8.03336 22.7174 7.89474 22.3684 7.89474ZM19.7368 9.21053C20.0722 9.2109 20.3948 9.33931 20.6386 9.56954C20.8825 9.79976 21.0293 10.1144 21.0489 10.4492C21.0686 10.784 20.9596 11.1137 20.7444 11.3708C20.5291 11.628 20.2238 11.7933 19.8908 11.8329L19.7368 11.8421H17.1053C16.7699 11.8417 16.4473 11.7133 16.2035 11.4831C15.9596 11.2529 15.8128 10.9382 15.7932 10.6034C15.7735 10.2686 15.8825 9.93897 16.0977 9.6818C16.313 9.42462 16.6183 9.25935 16.9513 9.21974L17.1053 9.21053H19.7368ZM18.4211 2.63158H7.89474V5.26316H18.4211V2.63158Z"/>
	</symbol>



</svg>