<svg display="none" xmlns="http://www.w3.org/2000/svg">

	<symbol id="search" viewBox="0 0 14 14">
		<path
			d="M13.6148 13.6148C13.4928 13.7369 13.3479 13.8338 13.1884 13.8999C13.0289 13.966 12.8579 14 12.6853 14C12.5126 14 12.3417 13.966 12.1822 13.8999C12.0227 13.8338 11.8778 13.7369 11.7557 13.6148L9.43562 11.2947C8.4811 11.9056 7.35303 12.2711 6.13556 12.2711C2.74698 12.2711 0 9.52415 0 6.13556C0 2.74698 2.74698 0 6.13556 0C9.52415 0 12.2711 2.74698 12.2711 6.13556C12.2711 7.35303 11.9056 8.4811 11.2947 9.43562L13.6148 11.7557C13.7369 11.8778 13.8338 12.0227 13.8999 12.1822C13.966 12.3417 14 12.5126 14 12.6853C14 12.8579 13.966 13.0289 13.8999 13.1884C13.8338 13.3479 13.7369 13.4928 13.6148 13.6148ZM6.13556 1.75302C3.71552 1.75302 1.75302 3.71464 1.75302 6.13556C1.75302 8.55648 3.71552 10.5181 6.13556 10.5181C8.55648 10.5181 10.5181 8.55648 10.5181 6.13556C10.5181 3.71464 8.55648 1.75302 6.13556 1.75302Z" />
	</symbol>

	<symbol id="basket" viewBox="0 0 28 28">
		<path
			d="M22.4 22.4C20.846 22.4 19.6 23.646 19.6 25.2C19.6 25.9426 19.895 26.6548 20.4201 27.1799C20.9452 27.705 21.6574 28 22.4 28C23.1426 28 23.8548 27.705 24.3799 27.1799C24.905 26.6548 25.2 25.9426 25.2 25.2C25.2 24.4574 24.905 23.7452 24.3799 23.2201C23.8548 22.695 23.1426 22.4 22.4 22.4ZM0 0V1.08481C0 2.03208 0.767916 2.8 1.71519 2.8C2.3777 2.8 2.98097 3.18156 3.26489 3.78015L6.1588 9.88147C7.21398 12.1061 7.13101 14.7032 5.936 16.856C5.726 17.248 5.6 17.71 5.6 18.2C5.6 18.9426 5.895 19.6548 6.4201 20.1799C6.9452 20.705 7.65739 21 8.4 21H23.8C24.5732 21 25.2 20.3732 25.2 19.6C25.2 18.8268 24.5732 18.2 23.8 18.2H8.988C8.89517 18.2 8.80615 18.1631 8.74051 18.0975C8.67487 18.0318 8.638 17.9428 8.638 17.85C8.638 17.78 8.652 17.724 8.68 17.682C9.45736 16.2741 10.9385 15.4 12.5467 15.4H20.37C21.42 15.4 22.344 14.812 22.82 13.958L27.832 4.9C27.93 4.676 28 4.438 28 4.2C28 3.8287 27.8525 3.4726 27.59 3.21005C27.3274 2.9475 26.9713 2.8 26.6 2.8H8.98784C7.09952 2.8 5.38122 1.70897 4.578 0M8.4 22.4C6.846 22.4 5.6 23.646 5.6 25.2C5.6 25.9426 5.895 26.6548 6.4201 27.1799C6.9452 27.705 7.65739 28 8.4 28C9.14261 28 9.8548 27.705 10.3799 27.1799C10.905 26.6548 11.2 25.9426 11.2 25.2C11.2 24.4574 10.905 23.7452 10.3799 23.2201C9.8548 22.695 9.14261 22.4 8.4 22.4Z" />
	</symbol>

	<symbol id="next" viewBox="0 0 32 55">
		<path d="M2 2L28 27.5L2 53" stroke-width="5" />
	</symbol>

	<symbol id="prev" viewBox="0 0 22 35">
		<path d="M20 33L4 17.5L20 2" stroke-width="5" />
	</symbol>

	<symbol id="close" viewBox="0 0 25 25">
		<path
			d="M2.96875 0L0 2.96875L9.53125 12.5L0 22.0312L2.96875 25L12.5 15.4688L22.0312 25L25 22.0312L15.4688 12.5L25 2.96875L22.0312 0L12.5 9.53125L2.96875 0Z" />
	</symbol>

	<symbol id="arrow-bottom" viewBox="0 0 23 13">
		<path d="M1.5 1.5L11.5 11.5L21.5 1.5" stroke-width="2" />
	</symbol>

</svg>