<svg width="40" height="34" viewBox="0 0 40 34" fill="none" xmlns="http://www.w3.org/2000/svg">
<path d="M38.2409 14.6997C37.0167 22.3641 35.6863 30.7425 35.6863 30.7425C35.6863 30.7425 35.4811 33.0934 33.7438 33.5C31.8826 33.4715 30.0838 32.8247 28.6311 31.6617C28.2207 31.3541 20.9603 26.7583 18.3031 24.51C18.0321 24.3271 17.8118 24.0787 17.6629 23.7879C17.514 23.497 17.4413 23.1732 17.4515 22.8466C17.4618 22.5201 17.5546 22.2015 17.7215 21.9205C17.8883 21.6395 18.1237 21.4054 18.4057 21.2399C22.0478 17.9018 25.6267 14.4956 29.1406 11.0231C30.3684 9.79639 31.5961 6.9364 26.4834 10.4115C19.223 15.4174 12.0652 20.1157 12.0652 20.1157C11.328 20.448 10.5313 20.6283 9.72271 20.646C8.91415 20.6636 8.11034 20.5181 7.35934 20.2182C4.29171 19.299 0.714567 18.0723 0.714567 18.0723C0.714567 18.0723 -1.74096 16.5416 2.45183 14.8906C2.45183 14.8906 20.1429 7.63638 26.2782 5.08395C28.6311 4.06227 36.6063 0.792201 36.6063 0.792201C36.6063 0.792201 40.2896 -0.639563 39.9817 2.83555C39.8791 4.28145 39.0618 9.28732 38.2409 14.6997Z" fill="#FFC400"/>
</svg>
