<svg width="38" height="38" viewBox="0 0 38 38" fill="none" xmlns="http://www.w3.org/2000/svg">
<path d="M19.0048 0H18.9953C8.51913 0 0 8.5215 0 19C0 23.1563 1.3395 27.0085 3.61713 30.1364L1.24925 37.1949L8.55238 34.8603C11.5568 36.8505 15.1406 38 19.0048 38C29.4809 38 38 29.4761 38 19C38 8.52388 29.4809 0 19.0048 0ZM30.0604 26.8304C29.602 28.1248 27.7828 29.1983 26.3316 29.5118C25.3389 29.7231 24.0421 29.8918 19.6769 28.082C14.0932 25.7688 10.4975 20.0949 10.2173 19.7267C9.94888 19.3586 7.961 16.7224 7.961 13.9959C7.961 11.2694 9.34563 9.94175 9.90375 9.37175C10.3621 8.90388 11.1198 8.69013 11.8465 8.69013C12.0816 8.69013 12.293 8.702 12.483 8.7115C13.0411 8.73525 13.3214 8.7685 13.6895 9.64963C14.1479 10.754 15.2641 13.4805 15.3971 13.7608C15.5325 14.041 15.6679 14.421 15.4779 14.7891C15.2998 15.1691 15.143 15.3378 14.8628 15.6608C14.5825 15.9838 14.3165 16.2308 14.0363 16.5775C13.7797 16.8791 13.49 17.2021 13.813 17.7603C14.136 18.3065 15.2523 20.1281 16.8958 21.5911C19.0166 23.4792 20.7361 24.0825 21.3512 24.339C21.8096 24.529 22.3559 24.4839 22.6908 24.1276C23.1159 23.6693 23.6408 22.9093 24.1751 22.1611C24.5551 21.6244 25.0349 21.5579 25.5384 21.7479C26.0514 21.926 28.766 23.2679 29.3241 23.5458C29.8823 23.826 30.2504 23.959 30.3858 24.1941C30.5188 24.4293 30.5187 25.5336 30.0604 26.8304Z" fill="#FFC400"/>
</svg>
